<?xml version="1.0" standalone="no"?>
<!DOCTYPE svg PUBLIC "-//W3C//DTD SVG 20010904//EN"
 "http://www.w3.org/TR/2001/REC-SVG-20010904/DTD/svg10.dtd">
<svg version="1.0" xmlns="http://www.w3.org/2000/svg"
 width="656.000000pt" height="656.000000pt" viewBox="0 0 656.000000 656.000000"
 preserveAspectRatio="xMidYMid meet">
<metadata>
Created by potrace 1.11, written by Peter Selinger 2001-2013
</metadata>
<g transform="translate(0.000000,656.000000) scale(0.100000,-0.100000)"
fill="#000000" stroke="none">
<path d="M3069 6555 c-2 -1 -38 -6 -79 -9 -296 -25 -644 -113 -930 -234 -110
-46 -310 -147 -377 -189 -29 -18 -54 -33 -57 -33 -12 0 -292 -198 -332 -235
-6 -5 -31 -26 -54 -45 -162 -132 -390 -373 -505 -534 -11 -16 -29 -40 -41 -55
-56 -69 -254 -395 -254 -417 0 -3 -9 -19 -21 -35 -11 -16 -18 -29 -15 -29 2 0
-10 -30 -28 -67 -109 -223 -213 -559 -257 -823 -6 -36 -12 -78 -15 -95 -2 -16
-6 -43 -8 -60 -15 -100 -21 -216 -21 -415 1 -298 11 -401 71 -713 2 -10 6 -27
9 -37 3 -10 7 -27 9 -37 18 -89 85 -299 141 -443 104 -264 304 -614 462 -810
175 -218 361 -406 527 -535 22 -16 56 -43 76 -60 105 -84 315 -215 480 -299
347 -178 756 -297 1140 -333 172 -16 549 -9 705 13 53 8 244 42 273 49 12 3
31 7 42 9 343 76 730 247 1062 470 296 198 612 508 815 800 23 33 47 68 53 76
6 8 20 31 32 50 12 19 37 60 56 90 193 309 371 796 426 1160 3 19 8 46 10 60
37 209 43 691 12 890 -2 14 -7 48 -10 75 -27 222 -114 544 -213 784 -170 417
-439 816 -752 1115 -111 107 -112 108 -171 156 -30 25 -57 47 -60 50 -40 46
-457 320 -485 320 -4 0 -21 10 -38 22 -18 13 -33 22 -34 21 -2 -2 -44 17 -95
40 -51 24 -131 58 -178 77 -47 18 -94 36 -105 41 -118 50 -479 134 -661 155
-27 3 -60 7 -74 10 -29 6 -526 15 -531 9z"/>
</g>
</svg>
